<?xml version="1.0" encoding="UTF-8"?>
<svg id="Layer_1" data-name="Layer 1" xmlns="http://www.w3.org/2000/svg" viewBox="0 0 303 58">
  <defs>
    <style>
      .cls-1 {
        fill: #fff;
      }
    </style>
  </defs>
  <g>
    <path class="cls-1" d="M24.46,16.59c-4.54,0-8.24,3.7-8.24,8.24s3.7,8.24,8.24,8.24,8.24-3.7,8.24-8.24-3.7-8.24-8.24-8.24m0,22.51c-7.86,0-14.27-6.4-14.27-14.27s6.4-14.27,14.27-14.27,14.27,6.4,14.27,14.27-6.4,14.27-14.27,14.27"/>
    <path class="cls-1" d="M28.53,45.21c0,2.25-1.82,4.07-4.07,4.07s-4.07-1.82-4.07-4.07,1.82-4.07,4.07-4.07,4.07,1.82,4.07,4.07"/>
    <path class="cls-1" d="M13.08,41.97c-1.59,1.59-4.17,1.59-5.76,0s-1.59-4.17,0-5.76,4.17-1.59,5.76,0,1.59,4.17,0,5.76"/>
    <path class="cls-1" d="M4.08,28.9C1.82,28.9,0,27.07,0,24.82s1.82-4.08,4.08-4.08,4.08,1.82,4.08,4.08-1.83,4.08-4.08,4.08"/>
    <path class="cls-1" d="M10.19,14.63c-2.25,0-4.08-1.82-4.08-4.08s1.82-4.08,4.08-4.08,4.08,1.82,4.08,4.08-1.82,4.08-4.08,4.08"/>
    <path class="cls-1" d="M38.73,14.63c-2.25,0-4.08-1.82-4.08-4.08s1.82-4.08,4.08-4.08,4.08,1.82,4.08,4.08-1.82,4.08-4.08,4.08"/>
    <path class="cls-1" d="M24.46,8.52c-2.25,0-4.08-1.82-4.08-4.08S22.21,.36,24.46,.36s4.08,1.82,4.08,4.08-1.83,4.08-4.08,4.08"/>
    <path class="cls-1" d="M44.85,28.9c-2.25,0-4.07-1.82-4.07-4.07s1.82-4.07,4.07-4.07,4.07,1.82,4.07,4.07c0,2.25-1.82,4.07-4.07,4.07"/>
    <path class="cls-1" d="M35.85,41.97c-1.59-1.59-1.59-4.17,0-5.76s4.17-1.59,5.76,0,1.59,4.17,0,5.76c-1.59,1.59-4.17,1.59-5.76,0"/>
  </g>
  <path class="cls-1" d="M73.23,23.87c-1.23-.59-3.41-1.24-6.68-2.02-3.89-.92-5.29-1.66-5.77-2.13-.69-.65-1.02-1.45-1.02-2.46,0-1.17,.49-2.14,1.49-2.98,1.01-.85,3.35-1.28,5.63-1.28s3.85,.48,4.95,1.42c1.08,.93,1.73,2.34,1.92,4.19l.04,.4,4.56-.1-.02-.67c-.07-1.9-.59-3.63-1.53-5.14-.95-1.51-2.32-2.67-4.08-3.45-1.73-.76-4.41-1.15-6.67-1.15-2.05,0-3.94,.37-5.63,1.1-1.71,.74-3.03,1.84-3.93,3.28-.89,1.43-1.35,3-1.35,4.65,0,1.51,.37,2.89,1.11,4.11,.73,1.21,1.86,2.24,3.34,3.05,1.14,.63,3.05,1.28,5.85,1.99,2.71,.68,4.48,1.19,5.26,1.51,1.17,.47,2.02,1.04,2.51,1.7,.49,.66,.73,1.42,.73,2.31s-.25,1.68-.77,2.43c-.51,.74-1.32,1.34-2.39,1.78-1.1,.45-2.39,.67-3.84,.67-1.63,0-3.12-.3-4.42-.89-1.28-.58-2.23-1.35-2.83-2.27-.61-.94-1-2.17-1.17-3.66l-.05-.4-4.49,.41v.4c.07,2.15,.64,4.12,1.72,5.83,1.08,1.72,2.58,3.02,4.47,3.87,1.87,.84,4.2,1.27,6.94,1.27,2.18,0,4.17-.42,5.91-1.26,1.77-.85,3.14-2.05,4.09-3.58,.95-1.53,1.43-3.19,1.43-4.93s-.44-3.33-1.31-4.67c-.86-1.35-2.21-2.47-4.01-3.34"/>
  <path class="cls-1" d="M92.03,37.08c-.67,.09-1.22,.15-1.63,.15-.49,0-.86-.07-1.09-.21-.23-.14-.39-.32-.49-.55-.06-.15-.17-.59-.17-1.95v-13.04h4.46v-3.83h-4.46V8.52l-4.66,.19v8.93h-3.07v3.83h3.07v12.83c0,2.38,.17,3.92,.5,4.7,.35,.8,.95,1.45,1.8,1.93,.83,.48,1.99,.72,3.45,.72,.88,0,1.88-.12,2.99-.35l.39-.08-.69-4.19-.41,.06Z"/>
  <path class="cls-1" d="M110.57,29.93v.8c0,1.62-.2,2.86-.59,3.66-.51,1.04-1.33,1.87-2.42,2.47-1.11,.61-1.95,.92-3.38,.92s-2.49-.31-3.2-.92c-.7-.61-1.05-1.34-1.05-2.24,0-.59,.16-1.11,.48-1.59,.32-.48,.76-.84,1.36-1.09,.63-.27,1.3-.52,2.87-.74,2.52-.35,4.51-.77,5.94-1.26m5.08,7.98c-.16-.92-.25-3.17-.25-6.71v-5.12c0-1.75-.07-2.94-.2-3.63-.25-1.11-.69-2.06-1.31-2.79-.63-.74-1.61-1.36-2.91-1.85-1.28-.47-2.95-.71-4.98-.71s-3.85,.28-5.41,.83c-1.58,.56-2.82,1.37-3.67,2.42-.84,1.04-1.45,2.41-1.81,4.07l-.1,.44,4.69,.62,.09-.37c.39-1.51,1-2.56,1.79-3.13,.8-.58,2.09-.87,3.84-.87,1.86,0,3.27,.4,4.19,1.2,.64,.55,.97,1.56,.97,2.99,0,.1,0,.33-.02,.7-1.47,.46-3.71,.87-6.64,1.21-1.57,.19-2.77,.39-3.56,.59-1.09,.3-1.63,.74-2.5,1.32-.89,.59-1.62,1.38-2.16,2.36-.55,.98-.83,2.07-.83,3.25,0,2.01,.74,3.68,2.2,4.98,1.44,1.28,3.52,1.93,6.17,1.93,1.59,0,2.65-.26,4.04-.77,1.2-.44,2.45-1.17,3.73-2.15,.15,.81,.39,1.54,.72,2.19l.12,.24h5.1l-.36-.63c-.47-.83-.78-1.7-.94-2.59"/>
  <polygon class="cls-1" points="139.17 17.21 132.72 17.21 123.87 25.83 123.87 8.58 118.99 8.58 118.99 41.12 123.87 41.12 123.87 31.51 126.18 29.38 134.1 41.12 140.1 41.12 129.63 26.11 139.17 17.21"/>
  <path class="cls-1" d="M145.07,26.39c.19-1.66,.83-3.01,1.9-4.02,1.17-1.11,2.58-1.65,4.3-1.65,1.9,0,3.4,.67,4.6,2.07,.7,.81,1.15,2.01,1.35,3.6,0,0-12.15,0-12.15,0Zm17.26,3.59c.02-.47,.02-.81,.02-1.04,0-3.84-1.05-6.87-3.1-9-2.07-2.14-4.76-3.23-8.02-3.23s-6.12,1.11-8.24,3.29c-2.1,2.18-3.17,5.26-3.17,9.17s1.06,6.77,3.14,8.88c2.09,2.12,4.95,3.2,8.49,3.2,2.81,0,5.16-.67,6.99-2.01,1.82-1.33,3.09-3.23,3.77-5.63l.05-.63h-4.88s-.12,.33-.12,.33c-.57,1.54-1.35,2.22-2.31,2.91-.95,.68-2.12,1.02-3.48,1.02-1.86,0-3.36-.61-4.6-1.86-1.16-1.17-1.84-2.85-2.03-5.01h17.47l.02-.4Z"/>
  <path class="cls-1" d="M180.57,17.52c-1.36-.7-2.99-1.05-4.82-1.05-2.62,0-4.87,.84-6.71,2.5V8.52h-4.94V41.13h4.94v-13.37c0-1.73,.21-3.09,.64-4.05,.41-.93,1.11-1.67,2.08-2.22,.98-.55,2.05-.83,3.16-.83,1.49,0,2.6,.39,3.4,1.19,.79,.79,1.19,2.12,1.19,3.93v15.35h4.94v-15.35c0-2.29-.3-4.07-.88-5.3-.6-1.26-1.61-2.25-3-2.96"/>
  <path class="cls-1" d="M204.43,28.86c0,2.86-.62,5-1.83,6.36-1.22,1.37-2.7,2.03-4.53,2.03s-3.34-.66-4.55-2.02c-1.21-1.36-1.83-3.46-1.83-6.24s.62-4.88,1.83-6.23c1.22-1.35,2.7-2.01,4.55-2.01s3.29,.66,4.52,2.02c1.22,1.36,1.84,3.41,1.84,6.09m-6.36-12.14c-2.95,0-5.49,.88-7.55,2.62-2.47,2.1-3.72,5.34-3.72,9.65,0,3.92,1.05,6.98,3.11,9.09,2.07,2.11,4.81,3.18,8.15,3.18,2.08,0,4.03-.49,5.79-1.44,1.77-.96,3.14-2.33,4.07-4.07,.92-1.73,1.39-4.11,1.39-7.08,0-3.7-1.06-6.65-3.14-8.76-2.09-2.12-4.82-3.2-8.1-3.2"/>
  <rect class="cls-1" x="211.55" y="8.53" width="4.95" height="32.6"/>
  <path class="cls-1" d="M235.28,22.93c1.23,1.35,1.85,3.55,1.85,6.51,0,2.68-.61,4.69-1.81,5.96-1.2,1.28-2.61,1.89-4.32,1.89s-3.12-.65-4.38-1.99-1.89-3.42-1.89-6.19,.6-4.97,1.77-6.28c1.17-1.29,2.58-1.92,4.31-1.92,1.79,0,3.25,.66,4.47,2.01m1.5-3.62c-.62-.57-1.34-1.06-2.16-1.46-1.22-.6-2.64-.91-4.2-.91-2.11,0-4.05,.51-5.77,1.53-1.72,1.01-3.02,2.49-3.87,4.39-.84,1.87-1.27,3.97-1.27,6.26s.47,4.47,1.41,6.28c.94,1.84,2.29,3.28,4.01,4.31,1.72,1.03,3.63,1.55,5.68,1.55,2.69,0,4.85-.84,6.45-2.5v2.37h4.81V8.36h-5.08v10.94h0Z"/>
  <path class="cls-1" d="M248.98,26.39c.19-1.66,.83-3.01,1.9-4.02,1.17-1.11,2.58-1.65,4.31-1.65,1.9,0,3.4,.67,4.6,2.07,.7,.81,1.16,2.02,1.35,3.6,0,0-12.16,0-12.16,0Zm17.27,3.59c.02-.47,.02-.81,.02-1.04,0-3.84-1.05-6.87-3.11-9-2.07-2.14-4.77-3.23-8.02-3.23s-6.13,1.11-8.24,3.29c-2.1,2.18-3.17,5.26-3.17,9.17s1.06,6.77,3.14,8.88c2.09,2.12,4.95,3.2,8.49,3.2,2.81,0,5.17-.67,6.99-2.01,1.82-1.33,3.1-3.23,3.77-5.63l.13-.71-4.96-.13-.12,.32c-.58,1.54-1.35,2.44-2.31,3.13-.95,.68-2.12,1.02-3.48,1.02-1.86,0-3.36-.61-4.6-1.86-1.16-1.17-1.84-2.85-2.04-5.01h17.48l.03-.41Z"/>
  <path class="cls-1" d="M282.45,18.04c-1.52-.88-3.03-1.32-4.51-1.32-1.06,0-2.04,.29-2.93,.86-.62,.4-1.26,1.07-1.93,2.04v-2.38h-4.65v23.95h5.07v-12.52c0-1.6,.22-3.1,.67-4.43,.28-.84,.74-1.46,1.39-1.93,.65-.46,1.36-.69,2.18-.69,.93,0,1.88,.27,2.82,.79l.47,.26,1.75-4.44-.33-.18Z"/>
  <path class="cls-1" d="M302,30.13c-.66-.95-1.58-1.67-2.73-2.16-1.1-.47-3.05-1.08-5.8-1.8-1.87-.51-3.02-.83-3.38-.97-.6-.24-1.04-.54-1.31-.89-.26-.32-.38-.68-.38-1.08,0-.65,.32-1.21,.98-1.72,.68-.52,1.88-.79,3.56-.79,1.4,0,2.49,.3,3.24,.89s1.18,1.4,1.34,2.46l.06,.41h4.68l-.11-1.06c-.26-1.53-.73-2.77-1.41-3.69-.69-.94-1.77-1.69-3.2-2.23-1.4-.53-3.04-.79-4.88-.79-1.23,0-2.39,.16-3.47,.48-1.08,.32-1.96,.72-2.59,1.18-.85,.61-1.54,1.38-2.03,2.29-.5,.92-.75,1.93-.75,3.01,0,1.18,.31,2.28,.92,3.26s1.51,1.76,2.68,2.32c1.13,.54,3.1,1.15,5.99,1.87,2.56,.64,3.5,1.03,3.83,1.24,.64,.42,.95,.97,.95,1.7,0,.85-.37,1.57-1.14,2.21-.78,.65-2.02,.98-3.69,.98s-2.95-.38-3.85-1.12c-.89-.74-1.45-1.82-1.65-3.24l-.06,.02h-4.69s.04,.42,.07,.71c.28,2.61,1.51,4.42,3.14,5.7,1.63,1.28,4.01,1.93,7.06,1.93,1.85,0,3.53-.32,5-.96,1.49-.65,2.65-1.58,3.45-2.78,.8-1.2,1.2-2.49,1.2-3.85,0-1.38-.34-2.56-1-3.51"/>
  <g>
    <rect class="cls-1" x="257.47" y="45.19" width="1.81" height="2.03"/>
    <rect class="cls-1" x="269.08" y="45.19" width="1.81" height="2.03"/>
    <rect class="cls-1" x="275.18" y="45.19" width="1.81" height="2.03"/>
    <g>
      <path class="cls-1" d="M216.99,50.83c-.49-.22-1.36-.48-2.67-.77-1.55-.35-2.1-.63-2.3-.81-.27-.25-.41-.55-.41-.93,0-.44,.19-.81,.59-1.13,.4-.32,1.07-.49,1.98-.49s1.53,.18,1.97,.54c.43,.35,.69,.89,.76,1.59l.02,.17,1.85-.14v-.17c-.03-.73-.24-1.39-.62-1.97-.38-.58-.93-1.02-1.63-1.32-.69-.29-1.5-.44-2.4-.44-.82,0-1.58,.14-2.25,.42-.69,.28-1.21,.71-1.57,1.26s-.54,1.15-.54,1.78c0,.58,.15,1.11,.44,1.57s.74,.86,1.34,1.17c.45,.24,1.22,.49,2.34,.76,1.08,.26,1.79,.45,2.1,.58,.47,.18,.8,.39,1,.65,.19,.25,.29,.53,.29,.87s-.1,.63-.3,.92c-.2,.28-.52,.51-.95,.67-.44,.17-.95,.26-1.53,.26-.65,0-1.24-.12-1.76-.34-.51-.22-.88-.51-1.12-.86-.24-.36-.4-.83-.46-1.39l-.02-.17-1.81,.16v.16c.03,.83,.26,1.57,.69,2.23,.43,.66,1.04,1.16,1.79,1.48,.75,.32,1.68,.49,2.78,.49,.87,0,1.67-.16,2.37-.48,.71-.32,1.26-.78,1.64-1.37s.57-1.22,.57-1.88-.18-1.28-.52-1.79c-.37-.51-.9-.94-1.63-1.28"/>
      <path class="cls-1" d="M223.78,48.27c-1.1,0-2.06,.33-2.82,1-.92,.8-1.39,2.04-1.39,3.68,0,1.5,.39,2.66,1.17,3.47,.77,.81,1.8,1.21,3.05,1.21,.78,0,1.51-.18,2.16-.55,.66-.37,1.18-.89,1.52-1.55,.35-.66,.52-1.57,.52-2.7,0-1.41-.4-2.54-1.18-3.34-.78-.81-1.8-1.22-3.03-1.22m0,7.81c-.69,0-1.24-.25-1.69-.76-.45-.51-.68-1.31-.68-2.37s.23-1.85,.68-2.36c.45-.51,1-.76,1.69-.76s1.22,.25,1.68,.76c.45,.51,.69,1.29,.69,2.31,0,1.08-.23,1.89-.68,2.41-.45,.52-1,.77-1.68,.77"/>
      <path class="cls-1" d="M234.19,52.55c-.41-.18-1.15-.41-2.19-.69-.71-.19-1.13-.32-1.27-.37-.22-.09-.39-.2-.49-.33-.09-.12-.14-.25-.14-.4,0-.25,.12-.45,.36-.64,.26-.2,.7-.3,1.33-.3,.52,0,.93,.12,1.21,.33,.28,.22,.44,.53,.5,.93l.03,.17,1.78-.24-.03-.18c-.09-.58-.28-1.06-.53-1.41-.26-.36-.67-.64-1.21-.85-.53-.2-1.15-.3-1.85-.3-.47,0-.9,.06-1.31,.18-.41,.12-.74,.27-.98,.45-.32,.23-.59,.53-.77,.87-.19,.35-.28,.74-.28,1.15,0,.45,.12,.87,.35,1.25s.57,.67,1.01,.88c.43,.2,1.17,.44,2.26,.72,.96,.24,1.32,.39,1.44,.47,.24,.16,.35,.37,.35,.63,0,.32-.14,.59-.42,.83-.29,.25-.76,.37-1.38,.37s-1.11-.14-1.44-.42c-.33-.28-.54-.69-.62-1.22l-.03-.17-1.79,.28,.03,.17c.17,.95,.57,1.68,1.19,2.18,.62,.49,1.52,.74,2.67,.74,.7,0,1.33-.13,1.89-.37,.56-.25,1-.61,1.31-1.06s.45-.95,.45-1.47-.13-.98-.38-1.35c-.26-.36-.61-.64-1.05-.83"/>
      <path class="cls-1" d="M239.68,55.79c-.56,.08-.86,.07-1.02-.03-.08-.05-.15-.12-.18-.2-.02-.04-.06-.2-.06-.74v-4.87h1.47v-1.49h-1.47v-3.15l-1.8,1.09v2.06h-1.07v1.49h1.07v4.79c0,.91,.06,1.5,.19,1.79,.13,.31,.37,.56,.69,.74,.32,.18,.76,.28,1.32,.28,.33,0,.72-.05,1.14-.14l.16-.03-.27-1.62-.17,.02Z"/>
      <path class="cls-1" d="M248.09,53.33c0-.18,.01-.31,.01-.4,0-1.46-.39-2.61-1.15-3.43-.76-.82-1.76-1.23-2.95-1.23s-2.25,.42-3.03,1.26c-.77,.83-1.17,2.01-1.17,3.5s.39,2.58,1.16,3.39c.77,.81,1.82,1.22,3.13,1.22,1.04,0,1.9-.26,2.57-.77,.67-.51,1.14-1.23,1.39-2.15l.05-.19-1.85-.23-.05,.13c-.21,.58-.49,1.01-.84,1.27-.35,.26-.77,.39-1.27,.39-.67,0-1.22-.23-1.68-.7-.42-.44-.67-1.07-.74-1.88h6.41v-.16Zm-6.32-1.38c.07-.62,.3-1.12,.69-1.51,.43-.42,.94-.62,1.57-.62,.7,0,1.24,.26,1.68,.78,.25,.3,.42,.75,.49,1.35h-4.43Z"/>
      <path class="cls-1" d="M255.67,49.36c-.24-.33-.59-.6-1.05-.79-.45-.19-.96-.29-1.5-.29-1.07,0-1.93,.37-2.57,1.09v-.89h-1.66v8.97h1.81v-4.88c0-1.05,.21-1.76,.62-2.12,.42-.37,.92-.55,1.5-.55,.36,0,.67,.08,.93,.24,.26,.16,.43,.36,.53,.62,.1,.27,.16,.7,.16,1.28v5.42h1.81v-5.48c0-.7-.03-1.17-.08-1.46-.09-.43-.25-.82-.48-1.14"/>
      <rect class="cls-1" x="257.47" y="48.47" width="1.81" height="8.97"/>
      <path class="cls-1" d="M267.3,49.56c-.32-.41-.74-.73-1.23-.95s-1.02-.33-1.58-.33c-.86,0-1.59,.3-2.19,.88v-3.97h-1.81v12.25h1.7v-.75c.58,.63,1.32,.95,2.22,.95,1.07,0,2-.42,2.76-1.27,.76-.84,1.14-2.03,1.14-3.55,0-.64-.09-1.24-.27-1.8-.18-.57-.43-1.06-.75-1.46m-2.94,.26c.59,0,1.07,.24,1.49,.74,.42,.5,.63,1.3,.63,2.38s-.22,1.85-.66,2.37c-.43,.52-.94,.77-1.52,.77-.73,0-1.29-.34-1.72-1.05-.26-.43-.4-1.16-.4-2.15s.22-1.78,.66-2.3c.44-.52,.94-.77,1.53-.77"/>
      <rect class="cls-1" x="269.08" y="48.47" width="1.81" height="8.97"/>
      <rect class="cls-1" x="272.09" y="45.19" width="1.81" height="12.25"/>
      <rect class="cls-1" x="275.18" y="48.47" width="1.81" height="8.97"/>
      <path class="cls-1" d="M283.69,49.16c-.21-.21-.46-.39-.74-.54-.43-.23-.93-.35-1.47-.35-.74,0-1.42,.2-2.02,.59-.6,.39-1.06,.96-1.35,1.69-.29,.72-.44,1.53-.44,2.41s.17,1.72,.49,2.42c.33,.71,.8,1.27,1.4,1.66,.6,.4,1.27,.6,1.99,.6,.93,0,1.68-.31,2.24-.94v.75h1.7v-12.25h-1.8v3.97h0Zm-2,6.92c-.59,0-1.08-.25-1.52-.76s-.66-1.31-.66-2.36,.21-1.9,.62-2.4c.4-.49,.89-.73,1.5-.73s1.12,.25,1.55,.76c.43,.52,.64,1.35,.64,2.49,0,1.02-.21,1.79-.63,2.28-.42,.48-.91,.72-1.5,.72"/>
      <path class="cls-1" d="M294.2,56.2c-.06-.35-.09-1.21-.09-2.55v-1.95c0-.67-.03-1.12-.08-1.39-.09-.42-.26-.78-.49-1.07-.24-.29-.6-.52-1.09-.71-.48-.18-1.1-.27-1.86-.27s-1.44,.1-2.01,.31c-.59,.21-1.05,.52-1.37,.93-.31,.4-.54,.92-.67,1.55l-.04,.18,1.77,.24,.04-.15c.15-.57,.37-.97,.66-1.18,.3-.22,.77-.33,1.42-.33,.69,0,1.21,.15,1.55,.45,.24,.21,.36,.59,.36,1.13,0,.04,0,.13,0,.26-.55,.17-1.38,.33-2.46,.45-.59,.07-1.03,.15-1.32,.22-.41,.12-.78,.28-1.1,.5-.33,.22-.61,.53-.81,.9s-.31,.79-.31,1.24c0,.77,.28,1.41,.82,1.9,.54,.49,1.31,.74,2.3,.74,.59,0,1.16-.1,1.67-.3,.44-.17,.9-.44,1.38-.81,.06,.3,.15,.58,.27,.82l.05,.09h1.93l-.14-.26c-.18-.3-.3-.63-.36-.97m-1.91-3.02v.29c0,.62-.07,1.08-.22,1.39-.19,.39-.49,.71-.89,.94-.41,.23-.89,.35-1.42,.35s-.92-.12-1.18-.35c-.26-.23-.38-.5-.38-.85,0-.22,.06-.42,.18-.6,.12-.18,.28-.31,.5-.41,.24-.1,.65-.19,1.23-.28,.92-.12,1.65-.28,2.19-.47"/>
      <path class="cls-1" d="M300.87,45.19v3.97c-.21-.21-.46-.39-.74-.54-.43-.23-.93-.35-1.47-.35-.74,0-1.42,.2-2.02,.59-.6,.39-1.06,.96-1.35,1.69-.29,.72-.44,1.53-.44,2.41s.17,1.72,.49,2.42c.33,.71,.8,1.27,1.4,1.66,.6,.4,1.27,.6,1.99,.6,.93,0,1.68-.31,2.24-.94v.75h1.7v-12.25s-1.8,0-1.8,0Zm-2,10.9c-.59,0-1.08-.25-1.52-.76s-.66-1.31-.66-2.36,.21-1.9,.61-2.4c.41-.49,.89-.73,1.5-.73s1.12,.25,1.55,.76c.43,.52,.64,1.35,.64,2.49,0,1.02-.21,1.79-.63,2.28-.42,.48-.9,.72-1.5,.72"/>
    </g>
  </g>
</svg>